<?xml version="1.0" encoding="utf-8"?>
<!-- Generator: Adobe Illustrator 18.0.0, SVG Export Plug-In . SVG Version: 6.00 Build 0)  -->
<!DOCTYPE svg PUBLIC "-//W3C//DTD SVG 1.0//EN" "http://www.w3.org/TR/2001/REC-SVG-20010904/DTD/svg10.dtd">
<svg version="1.0" id="Calque_1" xmlns="http://www.w3.org/2000/svg" xmlns:xlink="http://www.w3.org/1999/xlink" x="0px" y="0px"
	 viewBox="0 0 841.9 277" enable-background="new 0 0 841.9 277" xml:space="preserve">
<path fill="#323187" d="M201.6,62.8c2.8,10.8-43.2,7.2-69.9,48.8c-9.6,14.9-14.5,31.5-11.2,33.4s28.4-20.4,30.6-39.2
	c7.5,3.7,12.3,12.8,1.7,29.3c-15.2,23.7-69.6,52-81.7,70.8s-6.8-36.1,22.3-81.3C132.4,63.8,198.8,51.9,201.6,62.8z"/>
<path fill="#2D2161" d="M176.8,89.7c1.3,0.8,2.1,1.7,2.3,2.8c1.2,8-22.4,5.8-47.2,18.8c1.1-1.7,2.2-3.3,3.3-4.8
	C150.2,96,165.8,92.3,176.8,89.7z"/>
<path fill="#2D2161" d="M192.1,81.9c0.7,4.2-5.6,5.6-15.2,7.9c-11.1,2.6-26.7,6.3-41.6,16.8c5.4-7.3,11.5-13,17.6-17.6
	c0.4-0.3,0.7-0.5,1.1-0.8c0,0,0,0,0,0c12.2-6,24-8.3,32.9-10.1C190,78.8,191.8,80.1,192.1,81.9z"/>
<path fill="#2D2161" d="M202.9,70.6c0.5,4.3-6,5.4-15.9,7.4c-9,1.7-20.8,4.1-32.9,10.1c6.5-4.7,13.2-8.1,19.4-10.8
	c11.6-5,21.5-7.3,26-10.2l0,0C201.5,68,202.7,69.2,202.9,70.6z"/>
<path fill="#EA2B35" d="M153.2,198.9c-2.8-10.8,43.2-7.2,69.9-48.8c9.6-14.9,14.5-31.5,11.2-33.4c-3.3-1.9-28.4,20.4-30.6,39.2
	c-7.5-3.7-12.3-12.8-1.7-29.3c15.2-23.7,69.6-52,81.7-70.8s6.8,36.1-22.3,81.3C222.4,197.8,156,209.7,153.2,198.9z"/>
<path fill="#A81D25" d="M178,171.9c-1.3-0.8-2.1-1.7-2.3-2.8c-1.2-8,22.4-5.8,47.2-18.8c-1.1,1.7-2.2,3.3-3.3,4.8
	C204.6,165.6,189.1,169.4,178,171.9z"/>
<path fill="#A81D25" d="M162.7,179.8c-0.7-4.2,5.6-5.6,15.2-7.9c11.1-2.6,26.7-6.3,41.6-16.8c-5.4,7.3-11.5,13-17.6,17.6
	c-0.4,0.3-0.7,0.5-1.1,0.8c0,0,0,0,0,0c-12.2,6-24,8.3-32.9,10.1C164.8,182.8,163,181.5,162.7,179.8z"/>
<path fill="#A81D25" d="M152,191c-0.5-4.3,6-5.4,15.9-7.4c9-1.7,20.8-4.1,32.9-10.1c-6.5,4.7-13.2,8.1-19.4,10.8
	c-11.6,5-21.5,7.3-26,10.2l0,0C153.4,193.7,152.1,192.5,152,191z"/>
<g>
	<path fill="#434244" d="M349.7,153.8V172c0,5-1.8,9.3-5.3,12.8c-3.6,3.6-7.8,5.3-12.8,5.3c-5,0-9.3-1.8-12.8-5.3
		c-3.6-3.5-5.3-7.8-5.3-12.8V75.2c0-5,1.8-9.3,5.3-12.8c3.5-3.5,7.8-5.3,12.8-5.3c5,0,9.3,1.8,12.8,5.3c3.5,3.5,5.3,7.8,5.3,12.8
		v18.1h-12.1V75.2c0-1.7-0.6-3.1-1.8-4.3c-1.2-1.2-2.6-1.8-4.3-1.8c-1.7,0-3.1,0.6-4.3,1.8c-1.2,1.2-1.8,2.6-1.8,4.3V172
		c0,1.7,0.6,3.1,1.8,4.3c1.2,1.2,2.6,1.8,4.3,1.8c1.7,0,3.1-0.6,4.3-1.8c1.2-1.2,1.8-2.6,1.8-4.3v-18.1H349.7z"/>
	<path fill="#434244" d="M398.1,99.4V172c0,5-1.8,9.3-5.3,12.8c-3.6,3.6-7.8,5.3-12.8,5.3c-5,0-9.3-1.8-12.8-5.3
		c-3.6-3.5-5.3-7.8-5.3-12.8V99.4c0-5,1.8-9.3,5.3-12.8c3.5-3.5,7.8-5.3,12.8-5.3c5,0,9.3,1.8,12.8,5.3
		C396.3,90.1,398.1,94.4,398.1,99.4z M373.9,99.4V172c0,1.7,0.6,3.1,1.8,4.3c1.2,1.2,2.6,1.8,4.3,1.8c1.7,0,3.1-0.6,4.3-1.8
		c1.2-1.2,1.8-2.6,1.8-4.3V99.4c0-1.7-0.6-3.1-1.8-4.3c-1.2-1.2-2.6-1.8-4.3-1.8c-1.7,0-3.1,0.6-4.3,1.8
		C374.5,96.3,373.9,97.7,373.9,99.4z"/>
	<path fill="#434244" d="M446.5,99.4V172c0,5-1.8,9.3-5.3,12.8c-3.6,3.6-7.8,5.3-12.8,5.3s-9.3-1.8-12.8-5.3
		c-3.6-3.5-5.3-7.8-5.3-12.8V99.4c0-5,1.8-9.3,5.3-12.8c3.5-3.5,7.8-5.3,12.8-5.3s9.3,1.8,12.8,5.3
		C444.7,90.1,446.5,94.4,446.5,99.4z M422.3,99.4V172c0,1.7,0.6,3.1,1.8,4.3c1.2,1.2,2.6,1.8,4.3,1.8c1.7,0,3.1-0.6,4.3-1.8
		c1.2-1.2,1.8-2.6,1.8-4.3V99.4c0-1.7-0.6-3.1-1.8-4.3c-1.2-1.2-2.6-1.8-4.3-1.8c-1.7,0-3.1,0.6-4.3,1.8
		C422.8,96.3,422.3,97.7,422.3,99.4z"/>
	<path fill="#434244" d="M458.6,81.2h18.1c5,0,9.3,1.8,12.8,5.3c3.5,3.6,5.2,7.8,5.3,12.8V172c0,5-1.8,9.3-5.3,12.8
		c-3.6,3.6-7.8,5.3-12.8,5.3h-6v24.2h-12.1V81.2z M482.7,172V99.4c-0.1-1.7-0.7-3.1-1.8-4.2c-1.1-1.2-2.5-1.8-4.2-1.8h-6V178h6
		c1.7,0,3.1-0.6,4.4-1.7C482.2,175.1,482.7,173.7,482.7,172z"/>
	<path fill="#434244" d="M525.1,178c1.7,0,3.1-0.6,4.3-1.8c1.2-1.2,1.8-2.6,1.8-4.3v-18.1h12.1V172c0,5-1.8,9.3-5.3,12.8
		c-3.6,3.6-7.8,5.3-12.8,5.3s-9.3-1.8-12.8-5.3c-3.6-3.5-5.3-7.8-5.3-12.8v-47.4v-1.1V99.4c0-5,1.8-9.3,5.3-12.8
		c3.5-3.5,7.8-5.3,12.8-5.3s9.3,1.8,12.8,5.3c3.5,3.6,5.3,7.8,5.3,12.8v24.1c0,5-1.8,9.3-5.3,12.8c-3.6,3.6-7.8,5.3-12.8,5.3
		c-2.2,0-4.2-0.3-6-1V172c0,1.7,0.6,3.1,1.8,4.3C522,177.4,523.4,178,525.1,178z M525.1,129.5c1.7,0,3.1-0.6,4.2-1.7
		c1.1-1.1,1.7-2.5,1.8-4.2V99.4c0-1.7-0.6-3.1-1.8-4.3c-1.2-1.2-2.6-1.8-4.3-1.8s-3.1,0.6-4.3,1.8c-1.2,1.2-1.8,2.6-1.8,4.3v24.1
		c0,1.7,0.6,3.1,1.8,4.3C522,128.9,523.4,129.5,525.1,129.5z"/>
	<path fill="#434244" d="M579.5,99.3c0-1.6-0.6-3-1.7-4.1c-1.2-1.2-2.7-1.8-4.4-1.8h-6v96.8h-12.1V81.2h18.1c5,0,9.3,1.8,12.8,5.3
		c3.5,3.6,5.3,7.8,5.3,12.7H579.5z"/>
	<path fill="#434244" d="M634.3,99.4V172c0,5-1.8,9.3-5.3,12.8c-3.6,3.6-7.8,5.3-12.8,5.3s-9.3-1.8-12.8-5.3
		c-3.6-3.5-5.3-7.8-5.3-12.8V99.4c0-5,1.8-9.3,5.3-12.8c3.5-3.5,7.8-5.3,12.8-5.3s9.3,1.8,12.8,5.3
		C632.5,90.1,634.3,94.4,634.3,99.4z M610.1,99.4V172c0,1.7,0.6,3.1,1.8,4.3c1.2,1.2,2.6,1.8,4.3,1.8s3.1-0.6,4.3-1.8
		c1.2-1.2,1.8-2.6,1.8-4.3V99.4c0-1.7-0.6-3.1-1.8-4.3c-1.2-1.2-2.6-1.8-4.3-1.8s-3.1,0.6-4.3,1.8C610.6,96.3,610.1,97.7,610.1,99.4
		z"/>
	<path fill="#434244" d="M682.6,99.4v90.7h-12.1V99.4c0-1.7-0.6-3.1-1.7-4.2c-1.2-1.2-2.7-1.8-4.4-1.8h-6v96.8h-12.1V81.2h18.1
		c5,0,9.3,1.8,12.8,5.3C680.9,90.1,682.6,94.4,682.6,99.4z"/>
	<path fill="#434244" d="M706.7,153.8V172c0,1.7,0.6,3.1,1.8,4.3c1.2,1.2,2.6,1.8,4.3,1.8c1.7,0,3.2-0.6,4.3-1.8
		c1.2-1.2,1.8-2.6,1.8-4.3v-24.2c0-1.7-0.6-3.1-1.7-4.2c-1.2-1.2-2.7-1.8-4.4-1.8c-5,0-9.3-1.8-12.8-5.3c-3.6-3.5-5.3-7.8-5.3-12.8
		h0.1V99.4h-0.1c0-5,1.8-9.3,5.3-12.8c3.5-3.5,7.8-5.3,12.8-5.3s9.3,1.8,12.8,5.3c3.5,3.6,5.3,7.8,5.3,12.8v18.1h-12.1V99.4
		c0-1.7-0.6-3.1-1.8-4.3c-1.2-1.2-2.6-1.8-4.3-1.8c-1.7,0-3.2,0.6-4.3,1.8c-1.2,1.2-1.8,2.6-1.8,4.3h0.1v24.2h-0.1
		c0,1.7,0.6,3.1,1.7,4.2c1.2,1.2,2.7,1.8,4.4,1.8c5,0,9.3,1.8,12.9,5.3c3.6,3.5,5.4,7.8,5.4,12.8V172c0,5-1.8,9.3-5.3,12.8
		c-3.6,3.6-7.8,5.3-12.8,5.3s-9.3-1.8-12.8-5.3c-3.6-3.5-5.3-7.8-5.3-12.8v-18.1H706.7z"/>
	<path fill="#434244" d="M760.8,51h15.5v108.2h-15.5V51z M760.8,174.6h15.5v15.5h-15.5V174.6z"/>
</g>
<polygon fill="#EA333F" points="531.1,51.6 543.2,51.6 531.1,75.8 519,75.8 "/>
</svg>
