<?xml version="1.0" encoding="utf-8"?>
<!-- Generator: Adobe Illustrator 15.0.0, SVG Export Plug-In . SVG Version: 6.00 Build 0)  -->
<!DOCTYPE svg PUBLIC "-//W3C//DTD SVG 1.0//EN" "http://www.w3.org/TR/2001/REC-SVG-20010904/DTD/svg10.dtd">
<svg version="1.0" id="Calque_1" xmlns="http://www.w3.org/2000/svg" xmlns:xlink="http://www.w3.org/1999/xlink" x="0px" y="0px"
	 width="991px" height="262.079px" viewBox="0 0 991 262.079" enable-background="new 0 0 991 262.079" xml:space="preserve">
<g>
	<path fill="#FFFFFF" d="M438.878,85.313l-6.925-0.869l2.376-18.921l6.919,0.856c1.021-6.348,3.051-11.152,7.194-14.362
		c4.5-3.501,9.895-4.467,18.01-3.449c7.246,0.908,11.597,2.114,14.829,3.521l-1.922,15.341c-2.315-0.823-4.662-1.452-7.794-1.848
		c-3.793-0.48-5.92,0.797-6.332,4.046l-0.048,0.421l13.633,1.712l-2.309,18.285l-13.091-1.653l-5.035,40.13l-24.552-3.087
		L438.878,85.313z"/>
	<path fill="#FFFFFF" d="M470.9,115.192l-0.013-0.221c-1.164-16.742,11.756-32.077,31.332-33.432
		c19.472-1.355,34.265,11.82,35.436,28.569l0.003,0.22c1.171,16.742-11.752,32.077-31.328,33.432
		C486.861,145.116,472.061,131.934,470.9,115.192z M513.971,112.196l-0.013-0.221c-0.405-5.875-5.09-10.251-10.523-9.875
		c-5.544,0.389-9.244,5.349-8.848,11.003l0.01,0.214c0.412,5.875,5.083,10.245,10.521,9.875
		C510.661,122.804,514.363,117.851,513.971,112.196z"/>
	<path fill="#FFFFFF" d="M537.488,80.748l24.177-5.317l1.776,8.08c2.672-5.603,7.502-11.581,15.694-13.383
		c12.239-2.698,21.689,3.709,24.575,16.807l8.433,38.328l-24.166,5.311l-6.725-30.553c-1.103-4.993-4.707-7.23-8.335-6.426
		c-3.628,0.797-6.293,4.403-5.188,9.402l6.721,30.56l-24.166,5.317L537.488,80.748z"/>
	<path fill="#FFFFFF" d="M618.271,106.62l5.044-19.854l-6.763-1.725l4.694-18.493l6.767,1.725l3.67-14.473l23.987,6.095
		l-3.68,14.459L665.3,77.74l-4.688,18.486l-13.315-3.372l-3.705,14.57c-1.096,4.338,0.509,6.426,4.305,7.392
		c2.218,0.564,4.915,0.577,7.756,0.052l-4.701,18.493c-4.313,1.051-10.346,0.862-16.152-0.609
		C620.638,129.152,614.695,120.671,618.271,106.62z"/>
	<path fill="#FFFFFF" d="M838.809,137.814c0,3.495-2.834,6.322-6.322,6.322c-3.485,0-6.318-2.827-6.318-6.322
		c0-3.494,2.833-6.315,6.318-6.315C835.975,131.5,838.809,134.32,838.809,137.814z"/>
	<path fill="#FFFFFF" d="M844.611,126.727v-0.123c0-9.869,7.739-18.441,19.22-18.441c7.735,0,13.214,3.988,15.928,9.732
		l-10.514,5.933c-1.226-2.256-2.769-3.547-5.158-3.547c-3.093,0-5.421,2.71-5.421,6.192v0.13c0,3.676,2.328,6.316,5.223,6.316
		c2.588,0,4.069-1.284,5.486-3.541l10.637,6.05c-3.158,5.875-8.511,9.616-16.888,9.616
		C852.419,145.045,844.611,136.596,844.611,126.727z"/>
	<path fill="#FFFFFF" d="M880.209,126.662v-0.123c0-9.934,8.258-18.447,19.864-18.447c11.545,0,19.731,8.384,19.731,18.317v0.13
		c0,9.927-8.251,18.44-19.861,18.44C888.405,144.979,880.209,136.596,880.209,126.662z M905.747,126.662v-0.123
		c0-3.488-2.574-6.257-5.804-6.257c-3.283,0-5.677,2.769-5.677,6.127v0.13c0,3.476,2.581,6.25,5.807,6.25
		C903.364,132.789,905.747,130.015,905.747,126.662z"/>
	<path fill="#FFFFFF" d="M923.092,108.935h14.639v4.708c2.256-2.905,5.8-5.55,10.646-5.55c4.766,0,8.445,2.062,10.375,5.803
		c2.966-3.352,6.52-5.803,11.934-5.803c7.541,0,12.187,4.902,12.187,12.838v23.207h-14.635v-18.635c0-2.963-1.744-4.636-3.877-4.636
		c-2.124,0-4.06,1.673-4.06,4.636v18.635h-14.638v-18.635c0-2.963-1.741-4.636-3.864-4.636c-2.133,0-4.068,1.673-4.068,4.636v18.635
		h-14.639V108.935z"/>
	<path fill="#FFFFFF" d="M330.176,135.441l-0.104-0.298c-4.413-12.819,0.428-23.265,10.281-31.896
		c-9.399-1.316-19.281-6.004-23.281-17.624l-0.104-0.298c-5.975-17.352,7.162-35.546,32.207-44.176
		c25.042-8.624,46.592-2.386,52.57,14.965l0.097,0.298c4,11.62-0.895,21.41-7.489,28.231c12.219,0.681,23.109,5.369,27.732,18.791
		l0.104,0.312c6.338,18.402-8.005,37.517-35.306,46.925C359.584,160.081,336.456,153.694,330.176,135.441z M371.969,71.593
		l-0.101-0.298c-1.822-5.278-7.8-8.436-14.434-6.153c-6.64,2.282-9.405,8.462-7.589,13.74l0.11,0.305
		c2.02,5.888,8.06,8.708,14.543,6.471C370.983,83.413,374.001,77.487,371.969,71.593z M387.051,111.47l-0.107-0.312
		c-1.978-5.732-8.352-8.585-15.747-6.043c-7.395,2.542-10.66,8.728-8.682,14.453l0.097,0.311c1.819,5.278,7.709,9.156,15.857,6.348
		C386.607,123.427,388.814,116.592,387.051,111.47z"/>
	<path fill="#FFFFFF" d="M695.591,40.994l-18.078-0.583l0.276-27.59l33.564-0.603l26.585,6.73L711.123,124.84l-34.55-8.747
		L695.591,40.994z"/>
	<path fill="#FFFFFF" d="M726.75,101.621l51.468-20.211c7.797-2.983,11.376-6.394,12.404-10.446
		c1.141-4.506-1.485-8.689-7.493-10.212c-6.004-1.524-12.514,0.83-23.582,7.943l-18.159-25.541
		c15.978-11.943,30.346-16.93,52.278-11.379c24.04,6.088,37.656,24.879,32.603,44.857l-0.078,0.298
		c-4.069,16.081-14.842,22.617-29.513,27.531l-21.815,7.269l41.002,10.381l-6.961,27.486l-88.621-22.435L726.75,101.621z"/>
	<path fill="#FFFFFF" d="M723.923,207.791c-4.085,0-7.482,3.392-7.482,8.514v0.117c0,5.122,3.397,8.514,7.482,8.514
		s7.534-3.333,7.534-8.514v-0.117C731.457,211.183,728.008,207.791,723.923,207.791z"/>
	<path fill="#FFFFFF" d="M760.402,207.383c-3.624,0-5.984,2.594-6.679,6.563h13.176
		C766.381,210.035,764.086,207.383,760.402,207.383z"/>
	<path fill="#FFFFFF" d="M594.409,222.458v0.117c0,2.36,1.958,3.741,4.772,3.741c4.088,0,6.848-2.243,6.848-5.407v-1.557
		c-1.492-0.688-3.45-1.154-5.576-1.154C596.711,218.198,594.409,219.703,594.409,222.458z"/>
	<path fill="#FFFFFF" d="M661.912,222.458v0.117c0,2.36,1.958,3.741,4.772,3.741c4.088,0,6.848-2.243,6.848-5.407v-1.557
		c-1.492-0.688-3.45-1.154-5.577-1.154C664.214,218.198,661.912,219.703,661.912,222.458z"/>
	<path fill="#FFFFFF" d="M520.134,207.383c-3.628,0-5.981,2.594-6.672,6.563h13.169
		C526.119,210.035,523.817,207.383,520.134,207.383z"/>
	<path fill="#FFFFFF" d="M849.987,207.901c-5.013,0-8.002,3.852-8.002,8.403v0.117c0,4.545,3.274,8.514,8.112,8.514
		c5.005,0,8.001-3.852,8.001-8.397v-0.116C858.099,211.876,854.817,207.901,849.987,207.901z"/>
	<path fill="#FFFFFF" d="M312.954,181.025v67.227h672.921v-67.227H312.954z M596.426,187.938c1.434,0,2.529,0.745,3.274,1.958
		l3.165,4.947c0.291,0.46,0.576,1.031,0.576,1.55c0,0.921-0.92,1.498-2.185,1.498c-1.958,0-3.34-0.344-5.009-1.9l-3.57-3.333
		c-0.687-0.635-1.147-1.271-1.147-2.074C591.53,189.26,594.293,187.938,596.426,187.938z M357.075,219.871
		c0,8.002-6.102,12.488-14.787,12.488c-5.294,0-10.641-1.614-15.134-4.837c-0.979-0.688-1.666-1.958-1.666-3.333
		c0-2.302,1.835-4.091,4.137-4.091c1.154,0,1.958,0.401,2.535,0.811c3.047,2.243,6.39,3.624,10.3,3.624
		c3.627,0,5.813-1.439,5.813-3.8v-0.116c0-2.237-1.381-3.392-8.112-5.123c-8.118-2.068-13.351-4.312-13.351-12.307v-0.123
		c0-7.301,5.868-12.139,14.093-12.139c4.893,0,9.152,1.265,12.777,3.573c0.979,0.577,1.958,1.776,1.958,3.508
		c0,2.296-1.841,4.085-4.144,4.085c-0.862,0-1.553-0.227-2.243-0.629c-2.938-1.731-5.7-2.71-8.458-2.71
		c-3.401,0-5.181,1.55-5.181,3.508v0.116c0,2.646,1.728,3.515,8.692,5.298c8.17,2.127,12.77,5.063,12.77,12.086V219.871z
		 M388.374,219.411h-17.322c0.866,3.975,3.625,6.043,7.541,6.043c2.412,0,4.429-0.752,6.212-2.068
		c0.635-0.46,1.212-0.694,2.133-0.694c1.958,0,3.395,1.498,3.395,3.456c0,1.148-0.516,2.011-1.151,2.588
		c-2.708,2.302-6.218,3.741-10.706,3.741c-9.259,0-16.113-6.504-16.113-15.938v-0.116c0-8.806,6.276-16.062,15.25-16.062
		c10.303,0,14.842,8.462,14.842,14.849C392.456,217.744,390.676,219.411,388.374,219.411z M414.783,208.939
		c-4.432,1.037-6.902,4.429-6.902,10.646v8.17c0,2.419-1.958,4.377-4.377,4.377s-4.377-1.958-4.377-4.377v-22.792
		c0-2.411,1.958-4.37,4.377-4.37s4.377,1.959,4.377,4.37v1.388c1.264-2.995,3.333-5.758,5.926-5.758
		c2.701,0,4.253,1.783,4.253,4.261C418.061,207.156,416.563,208.537,414.783,208.939z M450.799,206.806l-9.434,21.813
		c-0.979,2.244-2.594,3.8-4.951,3.8h-0.457c-2.364,0-3.975-1.498-4.954-3.8l-9.438-21.813c-0.23-0.57-0.457-1.322-0.457-2.127
		c0-2.068,1.9-4.085,4.257-4.085c2.36,0,3.627,1.323,4.26,3.106l6.617,17.902l6.737-18.02c0.571-1.491,1.78-2.989,4.082-2.989
		c2.298,0,4.198,1.783,4.198,4.144C451.26,205.483,450.975,206.41,450.799,206.806z M466.16,227.756c0,2.419-1.958,4.377-4.37,4.377
		s-4.37-1.958-4.37-4.377v-22.792c0-2.411,1.958-4.37,4.37-4.37s4.37,1.959,4.37,4.37V227.756z M466.682,193.688
		c0,2.535-2.13,4.144-4.892,4.144s-4.889-1.608-4.889-4.144v-0.117c0-2.528,2.127-4.085,4.889-4.085s4.892,1.557,4.892,4.085
		V193.688z M499.884,228.502c-2.594,2.36-5.874,3.975-10.938,3.975c-9.259,0-16.051-7.133-16.051-15.938v-0.116
		c0-8.806,6.734-16.062,16.171-16.062c4.659,0,7.939,1.265,10.533,3.456c0.571,0.461,1.375,1.498,1.375,2.989
		c0,2.191-1.783,3.917-3.969,3.917c-1.154,0-2.016-0.454-2.528-0.869c-1.556-1.2-3.167-1.952-5.473-1.952
		c-4.371,0-7.476,3.852-7.476,8.403v0.117c0,4.714,3.047,8.514,7.823,8.514c2.302,0,4.088-0.805,5.755-2.127
		c0.46-0.351,1.326-0.811,2.36-0.811c2.068,0,3.683,1.673,3.683,3.748C501.148,226.887,500.63,227.814,499.884,228.502z
		 M530.897,219.411h-17.325c0.865,3.975,3.624,6.043,7.541,6.043c2.415,0,4.432-0.752,6.212-2.068
		c0.635-0.46,1.206-0.694,2.13-0.694c1.955,0,3.397,1.498,3.397,3.456c0,1.148-0.521,2.011-1.154,2.588
		c-2.7,2.302-6.212,3.741-10.702,3.741c-9.266,0-16.112-6.504-16.112-15.938v-0.116c0-8.806,6.27-16.062,15.25-16.062
		c10.297,0,14.846,8.462,14.846,14.849C534.979,217.744,533.193,219.411,530.897,219.411z M564.265,222.4
		c0,6.854-5.122,9.959-11.794,9.959c-3.8,0-7.889-1.096-11.627-3.514c-0.92-0.571-1.666-1.608-1.666-2.989
		c0-1.958,1.495-3.456,3.453-3.456c0.632,0,1.264,0.175,1.722,0.46c2.937,1.842,5.874,2.769,8.345,2.769
		c2.535,0,3.683-0.927,3.683-2.308v-0.11c0-1.9-2.989-2.535-6.387-3.566c-4.318-1.265-9.211-3.288-9.211-9.266v-0.11
		c0-6.276,5.067-9.791,11.283-9.791c3.222,0,6.559,0.868,9.554,2.36c1.265,0.635,2.068,1.783,2.068,3.28
		c0,1.959-1.553,3.45-3.511,3.45c-0.632,0-1.034-0.11-1.611-0.402c-2.471-1.206-4.834-1.952-6.672-1.952
		c-2.131,0-3.223,0.921-3.223,2.127v0.117c0,1.725,2.931,2.528,6.273,3.683c4.314,1.439,9.32,3.508,9.32,9.149V222.4z
		 M614.319,227.931c0,2.36-1.9,4.202-4.261,4.202c-2.532,0-4.198-1.783-4.198-3.631v-0.052c-2.133,2.354-5.064,3.909-9.324,3.909
		c-5.81,0-10.589-3.339-10.589-9.434v-0.117c0-6.737,5.119-9.843,12.431-9.843c3.112,0,5.35,0.519,7.541,1.265v-0.52
		c0-3.624-2.244-5.634-6.62-5.634c-2.419,0-4.374,0.343-6.044,0.862c-0.519,0.175-0.862,0.227-1.264,0.227
		c-2.014,0-3.625-1.55-3.625-3.566c0-1.55,0.979-2.872,2.36-3.397c2.762-1.031,5.751-1.608,9.836-1.608
		c4.776,0,8.229,1.271,10.42,3.456c2.299,2.302,3.337,5.693,3.337,9.837V227.931z M648.267,227.756c0,2.419-1.958,4.377-4.377,4.377
		c-2.415,0-4.373-1.958-4.373-4.377v-33.951c0-2.418,1.958-4.376,4.373-4.376c2.419,0,4.377,1.958,4.377,4.376V227.756z
		 M683.018,227.931c0,2.36-1.899,4.202-4.256,4.202c-2.536,0-4.202-1.783-4.202-3.631v-0.052c-2.134,2.354-5.064,3.909-9.324,3.909
		c-5.813,0-10.589-3.339-10.589-9.434v-0.117c0-6.737,5.123-9.843,12.431-9.843c3.105,0,5.349,0.519,7.537,1.265v-0.52
		c0-3.624-2.243-5.634-6.616-5.634c-2.416,0-4.374,0.343-6.044,0.862c-0.519,0.175-0.862,0.227-1.264,0.227
		c-2.011,0-3.625-1.55-3.625-3.566c0-1.55,0.979-2.872,2.356-3.397c2.766-1.031,5.755-1.608,9.84-1.608
		c4.775,0,8.229,1.271,10.414,3.456c2.308,2.302,3.342,5.693,3.342,9.837V227.931z M740.211,216.422
		c0,10.297-6.736,15.938-14.045,15.938c-4.661,0-7.541-2.127-9.609-4.604v9.207c0,2.419-1.958,4.377-4.37,4.377
		c-2.422,0-4.38-1.958-4.38-4.377v-31.999c0-2.411,1.958-4.37,4.38-4.37c2.412,0,4.37,1.959,4.37,4.37v0.409
		c2.127-2.879,5.064-5.013,9.609-5.013c7.191,0,14.045,5.642,14.045,15.944V216.422z M771.166,219.411h-17.325
		c0.862,3.975,3.624,6.043,7.541,6.043c2.412,0,4.429-0.752,6.212-2.068c0.629-0.46,1.206-0.694,2.133-0.694
		c1.958,0,3.392,1.498,3.392,3.456c0,1.148-0.519,2.011-1.147,2.588c-2.704,2.302-6.219,3.741-10.712,3.741
		c-9.26,0-16.106-6.504-16.106-15.938v-0.116c0-8.806,6.27-16.062,15.25-16.062c10.297,0,14.843,8.462,14.843,14.849
		C775.245,217.744,773.462,219.411,771.166,219.411z M797.569,208.939c-4.429,1.037-6.899,4.429-6.899,10.646v8.17
		c0,2.419-1.958,4.377-4.376,4.377c-2.419,0-4.377-1.958-4.377-4.377v-22.792c0-2.411,1.958-4.37,4.377-4.37
		c2.418,0,4.376,1.959,4.376,4.37v1.388c1.259-2.995,3.327-5.758,5.921-5.758c2.703,0,4.26,1.783,4.26,4.261
		C800.851,207.156,799.353,208.537,797.569,208.939z M828.583,222.4c0,6.854-5.122,9.959-11.801,9.959
		c-3.794,0-7.879-1.096-11.62-3.514c-0.921-0.571-1.673-1.608-1.673-2.989c0-1.958,1.498-3.456,3.456-3.456
		c0.636,0,1.265,0.175,1.725,0.46c2.938,1.842,5.875,2.769,8.346,2.769c2.528,0,3.683-0.927,3.683-2.308v-0.11
		c0-1.9-2.989-2.535-6.387-3.566c-4.318-1.265-9.207-3.288-9.207-9.266v-0.11c0-6.276,5.063-9.791,11.275-9.791
		c3.223,0,6.568,0.868,9.558,2.36c1.265,0.635,2.068,1.783,2.068,3.28c0,1.959-1.557,3.45-3.515,3.45
		c-0.629,0-1.03-0.11-1.602-0.402c-2.477-1.206-4.837-1.952-6.679-1.952c-2.126,0-3.223,0.921-3.223,2.127v0.117
		c0,1.725,2.932,2.528,6.271,3.683c4.318,1.439,9.324,3.508,9.324,9.149V222.4z M866.729,216.422
		c0,8.857-7.132,16.055-16.741,16.055c-9.558,0-16.632-7.081-16.632-15.938v-0.116c0-8.864,7.133-16.062,16.742-16.062
		c9.551,0,16.631,7.081,16.631,15.944V216.422z M901.309,227.756c0,2.419-1.958,4.377-4.37,4.377c-2.419,0-4.377-1.958-4.377-4.377
		V214.58c0-4.144-1.958-6.27-5.298-6.27c-3.332,0-5.459,2.126-5.459,6.27v13.176c0,2.419-1.958,4.377-4.377,4.377
		s-4.37-1.958-4.37-4.377v-22.792c0-2.411,1.951-4.37,4.37-4.37s4.377,1.959,4.377,4.37v0.351c2.01-2.587,4.597-4.954,9.025-4.954
		c6.621,0,10.479,4.377,10.479,11.451V227.756z M937.146,227.756c0,2.419-1.952,4.377-4.37,4.377c-2.412,0-4.37-1.958-4.37-4.377
		V214.58c0-4.144-1.959-6.27-5.298-6.27c-3.333,0-5.466,2.126-5.466,6.27v13.176c0,2.419-1.952,4.377-4.371,4.377
		c-2.418,0-4.37-1.958-4.37-4.377v-22.792c0-2.411,1.952-4.37,4.37-4.37c2.419,0,4.371,1.959,4.371,4.37v0.351
		c2.017-2.587,4.604-4.954,9.032-4.954c6.62,0,10.472,4.377,10.472,11.451V227.756z M969.256,219.411h-17.319
		c0.862,3.975,3.625,6.043,7.541,6.043c2.412,0,4.429-0.752,6.212-2.068c0.636-0.46,1.206-0.694,2.133-0.694
		c1.952,0,3.392,1.498,3.392,3.456c0,1.148-0.519,2.011-1.154,2.588c-2.704,2.302-6.212,3.741-10.698,3.741
		c-9.26,0-16.113-6.504-16.113-15.938v-0.116c0-8.806,6.27-16.062,15.25-16.062c10.297,0,14.843,8.462,14.843,14.849
		C973.341,217.744,971.564,219.411,969.256,219.411z"/>
	<path fill="#FFFFFF" d="M377.613,207.383c-3.625,0-5.985,2.594-6.675,6.563h13.179
		C383.595,210.035,381.296,207.383,377.613,207.383z"/>
	<path fill="#FFFFFF" d="M958.498,207.383c-3.631,0-5.984,2.594-6.678,6.563h13.176
		C964.483,210.035,962.182,207.383,958.498,207.383z"/>
	<path fill="#FFFFFF" d="M84.013,20.9c0.214-2.516,1.917-3.174,3.784-1.475l6.598,6.037c1.861,1.708,5.385,2.639,7.852,2.068
		l8.715-2.01c2.451-0.567,3.612,0.849,2.571,3.138l-3.709,8.141c-1.047,2.295-0.839,5.943,0.47,8.108l4.601,7.667
		c1.3,2.163,0.305,3.696-2.198,3.42l-8.88-1.005c-2.513-0.292-5.917,1.028-7.573,2.94l-5.868,6.75
		c-1.65,1.896-3.42,1.436-3.92-1.034l-1.793-8.76c-0.499-2.474-2.817-5.307-5.142-6.292l-8.231-3.495
		c-2.318-0.985-2.432-2.811-0.23-4.059l7.784-4.399c2.192-1.242,4.166-4.322,4.39-6.831L84.013,20.9z"/>
	<path fill="#FFFFFF" d="M249.228,71.953c2.623,0.966,2.83,2.976,0.467,4.474l-8.368,5.275c-2.36,1.488-4.38,5.002-4.5,7.787
		l-0.396,9.888c-0.104,2.792-1.955,3.618-4.111,1.838l-7.606-6.338c-2.143-1.783-6.105-2.629-8.796-1.874l-9.525,2.681
		c-2.697,0.755-4.053-0.746-3.009-3.346l3.673-9.188c1.034-2.597,0.603-6.624-0.947-8.948l-5.492-8.235
		c-1.55-2.331-0.542-4.072,2.25-3.894l9.872,0.648c2.795,0.188,6.488-1.462,8.222-3.654l6.134-7.771
		c1.731-2.188,3.706-1.767,4.399,0.94l2.441,9.596c0.688,2.704,3.385,5.709,6.014,6.685L249.228,71.953z"/>
	<path fill="#FFFFFF" d="M178.321,100.213c2.759,2.633,1.942,5.272-1.825,5.862l-13.325,2.127c-3.767,0.6-8.189,3.907-9.827,7.346
		l-5.823,12.184c-1.637,3.44-4.393,3.479-6.131,0.084l-6.134-12.025c-1.738-3.397-6.238-6.584-10.018-7.067l-13.383-1.773
		c-3.78-0.5-4.668-3.109-1.978-5.8l9.545-9.561c2.697-2.701,4.331-7.969,3.637-11.727l-2.458-13.27
		c-0.693-3.748,1.518-5.401,4.918-3.673l12.025,6.121c3.404,1.728,8.922,1.657,12.268-0.165l11.866-6.445
		c3.352-1.819,5.608-0.224,5.006,3.537l-2.098,13.341c-0.59,3.768,1.177,9,3.942,11.613L178.321,100.213z"/>
	<path fill="#FFFFFF" d="M130.456,190.955c6.351,3.395,6.192,8.611-0.36,11.598l-23.204,10.607
		c-6.559,2.996-12.939,11.25-14.181,18.344l-4.445,25.132c-1.239,7.094-6.241,8.56-11.124,3.249l-17.257-18.784
		c-4.873-5.317-14.677-8.838-21.81-7.813l-25.269,3.54c-7.132,0.999-10.08-3.307-6.529-9.57l12.547-22.225
		c3.546-6.293,3.858-16.706,0.7-23.193L8.337,158.901c-3.148-6.465,0.036-10.592,7.094-9.179l25.002,5.084
		c7.074,1.423,17.092-1.505,22.25-6.514l18.366-17.73c5.181-5.006,10.102-3.242,10.913,3.91l2.902,25.365
		c0.836,7.155,6.708,15.786,13.065,19.157L130.456,190.955z"/>
	<path fill="#FFFFFF" d="M248.881,161.358c4.996,0.688,6.164,4.156,2.578,7.71l-12.66,12.605c-3.579,3.563-5.777,10.526-4.87,15.493
		l3.187,17.602c0.901,4.954-2.03,7.132-6.526,4.827l-15.889-8.153c-4.497-2.312-11.792-2.244-16.223,0.158l-15.744,8.465
		c-4.438,2.39-7.415,0.279-6.614-4.697l2.856-17.656c0.801-4.996-1.53-11.911-5.178-15.409l-12.91-12.355
		c-3.644-3.482-2.555-6.968,2.435-7.749l17.653-2.732c4.99-0.785,10.861-5.143,13.04-9.682l7.752-16.112
		c2.198-4.549,5.855-4.584,8.121-0.081l8.06,15.96c2.292,4.5,8.241,8.741,13.228,9.422L248.881,161.358z"/>
	<path fill="#FFFFFF" d="M176.898,1.5c1.215-0.966,2.23-0.486,2.256,1.063l0.087,5.501c0.023,1.557,1.105,3.527,2.399,4.39
		l4.571,3.044c1.296,0.846,1.157,1.968-0.321,2.474l-5.207,1.786c-1.465,0.499-3.005,2.14-3.427,3.638l-1.488,5.297
		c-0.421,1.495-1.521,1.699-2.451,0.46l-3.31-4.396c-0.927-1.242-2.96-2.201-4.516-2.136l-5.495,0.227
		c-1.55,0.068-2.085-0.915-1.203-2.188l3.174-4.503c0.895-1.268,1.183-3.492,0.648-4.954l-1.926-5.155
		c-0.539-1.449,0.233-2.273,1.725-1.816l5.255,1.608c1.485,0.46,3.693,0.048,4.915-0.921L176.898,1.5z"/>
	<path fill="#FFFFFF" d="M26.454,83.556c1.219-0.966,2.234-0.483,2.263,1.063l0.084,5.505c0.02,1.556,1.102,3.524,2.396,4.386
		l4.574,3.044c1.297,0.846,1.158,1.971-0.317,2.48l-5.213,1.783c-1.465,0.5-3.002,2.143-3.424,3.638l-1.491,5.297
		c-0.415,1.495-1.521,1.702-2.444,0.46l-3.317-4.396c-0.927-1.241-2.957-2.204-4.51-2.133l-5.498,0.224
		c-1.55,0.068-2.085-0.915-1.203-2.188l3.171-4.5c0.895-1.274,1.183-3.495,0.648-4.957l-1.926-5.155
		c-0.538-1.453,0.236-2.27,1.728-1.819l5.252,1.608c1.485,0.46,3.693,0.049,4.915-0.921L26.454,83.556z"/>
</g>
</svg>
