<?xml version="1.0" encoding="utf-8"?>
<!-- Generator: Adobe Illustrator 18.0.0, SVG Export Plug-In . SVG Version: 6.00 Build 0)  -->
<!DOCTYPE svg PUBLIC "-//W3C//DTD SVG 1.1//EN" "http://www.w3.org/Graphics/SVG/1.1/DTD/svg11.dtd">
<svg version="1.1" id="Calque_1" xmlns="http://www.w3.org/2000/svg" xmlns:xlink="http://www.w3.org/1999/xlink" x="0px" y="0px"
	 viewBox="31 157.7 337.9 81.1" enable-background="new 31 157.7 337.9 81.1" xml:space="preserve">
<path fill="#FFFFFF" d="M95.9,166.8c1.3,5.1-20.5,3.4-33.2,23.2c-4.6,7.1-6.9,15-5.3,15.9c1.6,0.9,13.5-9.7,14.5-18.6
	c3.6,1.8,5.8,6.1,0.8,13.9c-7.2,11.3-33.1,24.7-38.8,33.6c-5.7,8.9-3.2-17.2,10.6-38.6C63,167.3,94.6,161.6,95.9,166.8z"/>
<path fill="#D2D2D2" d="M84.1,179.6c0.6,0.4,1,0.8,1.1,1.3c0.6,3.8-10.6,2.8-22.4,8.9c0.5-0.8,1-1.6,1.6-2.3
	C71.5,182.6,78.9,180.8,84.1,179.6z"/>
<path fill="#D2D2D2" d="M91.4,175.9c0.3,2-2.7,2.7-7.2,3.8c-5.3,1.2-12.7,3-19.8,8c2.6-3.5,5.5-6.2,8.4-8.4c0.2-0.1,0.3-0.2,0.5-0.4
	l0,0c5.8-2.9,11.4-3.9,15.6-4.8C90.4,174.4,91.3,175,91.4,175.9z"/>
<path fill="#D2D2D2" d="M96.5,170.5c0.2,2-2.9,2.6-7.6,3.5c-4.3,0.8-9.9,1.9-15.6,4.8c3.1-2.2,6.3-3.8,9.2-5.1
	c5.5-2.4,10.2-3.5,12.4-4.8l0,0C95.9,169.3,96.4,169.9,96.5,170.5z"/>
<path fill="#FFFFFF" d="M72.9,231.5c-1.3-5.1,20.5-3.4,33.2-23.2c4.6-7.1,6.9-15,5.3-15.9c-1.6-0.9-13.5,9.7-14.5,18.6
	c-3.6-1.8-5.8-6.1-0.8-13.9c7.2-11.3,33.1-24.7,38.8-33.6s3.2,17.2-10.6,38.6C105.8,231,74.3,236.6,72.9,231.5z"/>
<path fill="#F1F1F1" d="M84.7,218.6c-0.6-0.4-1-0.8-1.1-1.3c-0.6-3.8,10.6-2.8,22.4-8.9c-0.5,0.8-1,1.6-1.6,2.3
	C97.3,215.7,90,217.5,84.7,218.6z"/>
<path fill="#F1F1F1" d="M77.4,222.4c-0.3-2,2.7-2.7,7.2-3.8c5.3-1.2,12.7-3,19.8-8c-2.6,3.5-5.5,6.2-8.4,8.4
	c-0.2,0.1-0.3,0.2-0.5,0.4l0,0c-5.8,2.9-11.4,3.9-15.6,4.8C78.4,223.8,77.6,223.2,77.4,222.4z"/>
<path fill="#F1F1F1" d="M72.4,227.7c-0.2-2,2.9-2.6,7.6-3.5c4.3-0.8,9.9-1.9,15.6-4.8c-3.1,2.2-6.3,3.8-9.2,5.1
	c-5.5,2.4-10.2,3.5-12.4,4.8l0,0C73,229,72.4,228.4,72.4,227.7z"/>
<g>
	<path fill="#FFFFFF" d="M166.3,210v8.6c0,2.4-0.9,4.4-2.5,6.1c-1.7,1.7-3.7,2.5-6.1,2.5s-4.4-0.9-6.1-2.5c-1.7-1.7-2.5-3.7-2.5-6.1
		v-46c0-2.4,0.9-4.4,2.5-6.1c1.7-1.7,3.7-2.5,6.1-2.5s4.4,0.9,6.1,2.5c1.7,1.7,2.5,3.7,2.5,6.1v8.6h-5.7v-8.6c0-0.8-0.3-1.5-0.9-2
		c-0.6-0.6-1.2-0.9-2-0.9s-1.5,0.3-2,0.9c-0.6,0.6-0.9,1.2-0.9,2v46c0,0.8,0.3,1.5,0.9,2c0.6,0.6,1.2,0.9,2,0.9c0.8,0,1.5-0.3,2-0.9
		c0.6-0.6,0.9-1.2,0.9-2v-8.6L166.3,210L166.3,210z"/>
	<path fill="#FFFFFF" d="M189.3,184.2v34.5c0,2.4-0.9,4.4-2.5,6.1c-1.7,1.7-3.7,2.5-6.1,2.5s-4.4-0.9-6.1-2.5
		c-1.7-1.7-2.5-3.7-2.5-6.1v-34.5c0-2.4,0.9-4.4,2.5-6.1c1.7-1.7,3.7-2.5,6.1-2.5s4.4,0.9,6.1,2.5
		C188.4,179.8,189.3,181.8,189.3,184.2z M177.8,184.2v34.5c0,0.8,0.3,1.5,0.9,2c0.6,0.6,1.2,0.9,2,0.9c0.8,0,1.5-0.3,2-0.9
		c0.6-0.6,0.9-1.2,0.9-2v-34.5c0-0.8-0.3-1.5-0.9-2c-0.6-0.6-1.2-0.9-2-0.9s-1.5,0.3-2,0.9S177.8,183.4,177.8,184.2z"/>
	<path fill="#FFFFFF" d="M212.3,184.2v34.5c0,2.4-0.9,4.4-2.5,6.1c-1.7,1.7-3.7,2.5-6.1,2.5s-4.4-0.9-6.1-2.5
		c-1.7-1.7-2.5-3.7-2.5-6.1v-34.5c0-2.4,0.9-4.4,2.5-6.1s3.7-2.5,6.1-2.5s4.4,0.9,6.1,2.5C211.4,179.8,212.3,181.8,212.3,184.2z
		 M200.8,184.2v34.5c0,0.8,0.3,1.5,0.9,2c0.6,0.6,1.2,0.9,2,0.9c0.8,0,1.5-0.3,2-0.9c0.6-0.6,0.9-1.2,0.9-2v-34.5
		c0-0.8-0.3-1.5-0.9-2s-1.2-0.9-2-0.9c-0.8,0-1.5,0.3-2,0.9C201,182.7,200.8,183.4,200.8,184.2z"/>
	<path fill="#FFFFFF" d="M218,175.6h8.6c2.4,0,4.4,0.9,6.1,2.5c1.7,1.7,2.5,3.7,2.5,6.1v34.5c0,2.4-0.9,4.4-2.5,6.1
		c-1.7,1.7-3.7,2.5-6.1,2.5h-2.9v11.5H218V175.6z M229.5,218.7v-34.5c0-0.8-0.3-1.5-0.9-2c-0.5-0.6-1.2-0.9-2-0.9h-2.9v40.2h2.9
		c0.8,0,1.5-0.3,2.1-0.8C229.2,220.2,229.5,219.5,229.5,218.7z"/>
	<path fill="#FFFFFF" d="M249.6,221.5c0.8,0,1.5-0.3,2-0.9c0.6-0.6,0.9-1.2,0.9-2V210h5.7v8.6c0,2.4-0.9,4.4-2.5,6.1
		c-1.7,1.7-3.7,2.5-6.1,2.5c-2.4,0-4.4-0.9-6.1-2.5c-1.7-1.7-2.5-3.7-2.5-6.1v-22.5v-0.5v-11.5c0-2.4,0.9-4.4,2.5-6.1
		s3.7-2.5,6.1-2.5c2.4,0,4.4,0.9,6.1,2.5c1.7,1.7,2.5,3.7,2.5,6.1v11.5c0,2.4-0.9,4.4-2.5,6.1c-1.7,1.7-3.7,2.5-6.1,2.5
		c-1,0-2-0.1-2.9-0.5v14.9c0,0.8,0.3,1.5,0.9,2C248.1,221.3,248.8,221.5,249.6,221.5z M249.6,198.5c0.8,0,1.5-0.3,2-0.8
		c0.5-0.5,0.8-1.2,0.9-2v-11.5c0-0.8-0.3-1.5-0.9-2s-1.2-0.9-2-0.9c-0.8,0-1.5,0.3-2,0.9c-0.6,0.6-0.9,1.2-0.9,2v11.5
		c0,0.8,0.3,1.5,0.9,2C248.1,198.2,248.8,198.5,249.6,198.5z"/>
	<path fill="#FFFFFF" d="M275.5,184.2c0-0.8-0.3-1.4-0.8-1.9c-0.6-0.6-1.3-0.9-2.1-0.9h-2.9v46H264v-51.8h8.6c2.4,0,4.4,0.9,6.1,2.5
		c1.7,1.7,2.5,3.7,2.5,6L275.5,184.2L275.5,184.2z"/>
	<path fill="#FFFFFF" d="M301.5,184.2v34.5c0,2.4-0.9,4.4-2.5,6.1c-1.7,1.7-3.7,2.5-6.1,2.5s-4.4-0.9-6.1-2.5
		c-1.7-1.7-2.5-3.7-2.5-6.1v-34.5c0-2.4,0.9-4.4,2.5-6.1s3.7-2.5,6.1-2.5s4.4,0.9,6.1,2.5S301.5,181.8,301.5,184.2z M290,184.2v34.5
		c0,0.8,0.3,1.5,0.9,2c0.6,0.6,1.2,0.9,2,0.9s1.5-0.3,2-0.9c0.6-0.6,0.9-1.2,0.9-2v-34.5c0-0.8-0.3-1.5-0.9-2
		c-0.6-0.6-1.2-0.9-2-0.9s-1.5,0.3-2,0.9C290.2,182.7,290,183.4,290,184.2z"/>
	<path fill="#FFFFFF" d="M324.4,184.2v43.1h-5.7v-43.1c0-0.8-0.3-1.5-0.8-2c-0.6-0.6-1.3-0.9-2.1-0.9H313v46h-5.7v-51.8h8.6
		c2.4,0,4.4,0.9,6.1,2.5C323.6,179.8,324.4,181.8,324.4,184.2z"/>
	<path fill="#FFFFFF" d="M335.9,210v8.6c0,0.8,0.3,1.5,0.9,2c0.6,0.6,1.2,0.9,2,0.9c0.8,0,1.5-0.3,2-0.9c0.6-0.6,0.9-1.2,0.9-2
		v-11.5c0-0.8-0.3-1.5-0.8-2c-0.6-0.6-1.3-0.9-2.1-0.9c-2.4,0-4.4-0.9-6.1-2.5c-1.7-1.7-2.5-3.7-2.5-6.1h0v-11.5h0
		c0-2.4,0.9-4.4,2.5-6.1s3.7-2.5,6.1-2.5s4.4,0.9,6.1,2.5c1.7,1.7,2.5,3.7,2.5,6.1v8.6h-5.7v-8.6c0-0.8-0.3-1.5-0.9-2
		c-0.6-0.6-1.2-0.9-2-0.9s-1.5,0.3-2,0.9c-0.6,0.6-0.9,1.2-0.9,2h0v11.5h0c0,0.8,0.3,1.5,0.8,2c0.6,0.6,1.3,0.9,2.1,0.9
		c2.4,0,4.4,0.9,6.1,2.5s2.6,3.7,2.6,6.1v11.5c0,2.4-0.9,4.4-2.5,6.1c-1.7,1.7-3.7,2.5-6.1,2.5s-4.4-0.9-6.1-2.5
		c-1.7-1.7-2.5-3.7-2.5-6.1v-8.6L335.9,210L335.9,210z"/>
	<path fill="#FFFFFF" d="M361.6,161.2h7.4v51.4h-7.4V161.2z M361.6,219.9h7.4v7.4h-7.4V219.9z"/>
</g>
<polygon fill="#FFFFFF" points="252.5,161.5 258.2,161.5 252.5,173 246.7,173 "/>
</svg>
